<?xml version="1.0" encoding="UTF-8"?>
<svg id="Layer_2" data-name="Layer 2" xmlns="http://www.w3.org/2000/svg" xmlns:xlink="http://www.w3.org/1999/xlink" viewBox="0 0 147.64 147.64">
  <defs>
    <style>
      .cls-1 {
        fill: #fff;
      }

      .cls-2, .cls-3 {
        fill: none;
      }

      .cls-3 {
        clip-path: url(#clippath);
      }
    </style>
    <clipPath id="clippath">
      <circle class="cls-2" cx="73.82" cy="73.82" r="73.8"/>
    </clipPath>
  </defs>
  <g id="Layer_1-2" data-name="Layer 1">
    <g class="cls-3">
      <rect class="cls-1" x="110.49" y="-96.88" width="5.46" height="231.34" transform="translate(174.91 -77.99) rotate(113.09)"/>
      <rect class="cls-1" x="105.86" y="-86.03" width="5.46" height="231.34" transform="translate(178.45 -58.63) rotate(113.09)"/>
      <rect class="cls-1" x="101.24" y="-75.18" width="5.46" height="231.34" transform="translate(181.99 -39.26) rotate(113.09)"/>
      <rect class="cls-1" x="96.61" y="-64.33" width="5.46" height="231.34" transform="translate(185.53 -19.9) rotate(113.09)"/>
      <rect class="cls-1" x="91.98" y="-53.48" width="5.46" height="231.34" transform="translate(189.07 -.54) rotate(113.09)"/>
      <rect class="cls-1" x="87.36" y="-42.62" width="5.46" height="231.34" transform="translate(192.62 18.83) rotate(113.09)"/>
      <rect class="cls-1" x="82.73" y="-31.77" width="5.46" height="231.34" transform="translate(196.16 38.19) rotate(113.09)"/>
      <rect class="cls-1" x="78.1" y="-20.92" width="5.46" height="231.34" transform="translate(199.7 57.55) rotate(113.09)"/>
      <rect class="cls-1" x="73.48" y="-10.07" width="5.46" height="231.34" transform="translate(203.24 76.91) rotate(113.09)"/>
      <rect class="cls-1" x="68.85" y=".78" width="5.46" height="231.34" transform="translate(206.78 96.28) rotate(113.09)"/>
      <rect class="cls-1" x="64.22" y="11.63" width="5.46" height="231.34" transform="translate(210.32 115.64) rotate(113.09)"/>
      <rect class="cls-1" x="59.6" y="22.48" width="5.46" height="231.34" transform="translate(213.86 135) rotate(113.09)"/>
    </g>
  </g>
</svg>