<?xml version="1.0" encoding="UTF-8"?>
<svg id="Layer_2" data-name="Layer 2" xmlns="http://www.w3.org/2000/svg" xmlns:xlink="http://www.w3.org/1999/xlink" viewBox="0 0 69.66 69.66">
  <defs>
    <style>
      .cls-1 {
        fill: #fff;
      }

      .cls-2, .cls-3 {
        fill: none;
      }

      .cls-3 {
        clip-path: url(#clippath);
      }
    </style>
    <clipPath id="clippath">
      <circle class="cls-2" cx="34.83" cy="34.83" r="34.82"/>
    </clipPath>
  </defs>
  <g id="Layer_1-2" data-name="Layer 1">
    <g class="cls-3">
      <rect class="cls-1" x="52.13" y="-45.71" width="2.58" height="109.16" transform="translate(82.53 -36.8) rotate(113.09)"/>
      <rect class="cls-1" x="49.95" y="-40.59" width="2.58" height="109.16" transform="translate(84.2 -27.66) rotate(113.09)"/>
      <rect class="cls-1" x="47.77" y="-35.47" width="2.58" height="109.16" transform="translate(85.87 -18.53) rotate(113.09)"/>
      <rect class="cls-1" x="45.58" y="-30.35" width="2.58" height="109.16" transform="translate(87.54 -9.39) rotate(113.09)"/>
      <rect class="cls-1" x="43.4" y="-25.23" width="2.58" height="109.16" transform="translate(89.21 -.25) rotate(113.09)"/>
      <rect class="cls-1" x="41.22" y="-20.11" width="2.58" height="109.16" transform="translate(90.88 8.88) rotate(113.09)"/>
      <rect class="cls-1" x="39.04" y="-14.99" width="2.58" height="109.16" transform="translate(92.56 18.02) rotate(113.09)"/>
      <rect class="cls-1" x="36.85" y="-9.87" width="2.58" height="109.16" transform="translate(94.23 27.16) rotate(113.09)"/>
      <rect class="cls-1" x="34.67" y="-4.75" width="2.58" height="109.16" transform="translate(95.9 36.29) rotate(113.09)"/>
      <rect class="cls-1" x="32.49" y=".37" width="2.58" height="109.16" transform="translate(97.57 45.43) rotate(113.09)"/>
      <rect class="cls-1" x="30.3" y="5.49" width="2.58" height="109.16" transform="translate(99.24 54.56) rotate(113.09)"/>
      <rect class="cls-1" x="28.12" y="10.61" width="2.58" height="109.16" transform="translate(100.91 63.7) rotate(113.09)"/>
    </g>
  </g>
</svg>