<?xml version="1.0" encoding="UTF-8"?>
<svg id="Layer_2" data-name="Layer 2" xmlns="http://www.w3.org/2000/svg" viewBox="0 0 174.1 57.48">
  <defs>
    <style>
      .cls-1 {
        fill: #fff;
        fill-rule: evenodd;
      }
    </style>
  </defs>
  <g id="Layer_1-2" data-name="Layer 1">
    <g>
      <path class="cls-1" d="m27.34.2c2.12-.03,10.86-.57,11.98.23-7.1,12.64-14.19,25.29-21.29,37.93h18.38v-.12c-2.37-4.3-4.73-8.61-7.1-12.91,2.02-3.53,4.03-7.06,6.05-10.59h.23c6.2,11.32,12.41,22.65,18.62,33.97l-.12.23H0C9.11,32.71,18.23,16.45,27.34.2Z"/>
      <path class="cls-1" d="m160.21,14.51c3.14.04,6.28.08,9.42.12l-.23.35c-2.48,2.13-4.96,4.27-7.45,6.4-2.09-.04-4.19-.08-6.28-.12l.58-.58c1.32-2.06,2.64-4.11,3.96-6.17Z"/>
      <path class="cls-1" d="m172.66,30.57c-2.19-4.63-6.96-6.87-13.96-6.75-1.01.16-2.02.31-3.03.47-3.77,1.09-6.72,3.54-8.14,6.98-4.52,10.92,4.7,21.03,16.4,18.15,7.36-1.81,12.93-9.95,8.73-18.85Zm-11.63,12.57c-5.86,1.29-5.75-8.77-3.49-11.63.57-.72,1.52-.78,2.44-1.16,5.74.03,5.73,11.77,1.05,12.8Z"/>
      <path class="cls-1" d="m144.62,30.8c.04-1.98.08-3.96.12-5.93-.74-.71-6.72-.38-8.38-.35v2.91c-.08.04-.16.08-.23.12-1.6-2.37-4.18-3.83-8.26-3.72-.81.16-1.63.31-2.44.47-3.05,1.04-5.22,3.5-6.28,6.52-2.91,8.24,1.77,18.59,11.17,16.99,2.45-.42,3.54-1.78,5.35-2.44-.12,2.32.07,5.05-1.4,6.05-1.6,1.09-4.73.7-5.12-1.16h-9.42s-.08.08-.12.12c1.27,8.29,19.08,9.44,23.39,3.02,2.74-4.08,1.63-15.81,1.63-22.57Zm-11.75,10.24c-5.81,1.53-6.77-8.06-1.98-10.24,6.12-.21,5.98,9.19,1.98,10.24Z"/>
      <path class="cls-1" d="m83.65,31.27c-.04-.08-.08-.16-.12-.23,4.08-2.57,5.97-10.19,1.16-13.5-5.15-3.54-17.42-2.33-25.83-2.21-.08,11.17-.16,22.34-.23,33.51,2.83.04,5.66.08,8.49.12,8.19,0,16.53.61,20.01-4.07,3.24-4.36,1.73-12.6-3.49-13.61Zm-14.08-8.03c3-.1,7.38-.57,8.03,1.75,1.23,4.4-4.56,3.96-8.03,3.84v-5.58Zm0,17.92c-.04-2.06-.08-4.11-.12-6.17,4.01-.11,9.06-.73,9.42,2.91.4,3.99-5.57,3.37-9.31,3.26Z"/>
      <path class="cls-1" d="m116,29.52c-1.4-5.25-7-5.77-13.73-5.7-1.32.16-2.64.31-3.96.47-3.89.99-7.05,2.82-7.1,7.68,2.99.04,5.97.08,8.96.12,1.28-2.54,3.81-3.39,6.4-1.4.16.65.19,1.01.12,1.75-5.09,3.69-14.28.35-16.64,7.33-2.59,7.68,5.69,11.75,12.8,9.42,1.72-.56,3.02-1.69,4.3-2.68.19.81.39,1.63.58,2.44h9.77c.04-.08.08-.16.12-.23-2.97-4.68-.02-13.14-1.63-19.2Zm-16.4,13.03c-.01-3.96,4.5-2.77,6.86-4.3h.12c2.57,3.35-4.79,8.94-6.98,4.3Z"/>
    </g>
  </g>
</svg>