<?xml version="1.0" encoding="UTF-8"?>
<svg id="Layer_2" data-name="Layer 2" xmlns="http://www.w3.org/2000/svg" viewBox="0 0 125.47 38.87">
  <defs>
    <style>
      .cls-1 {
        fill: #fff;
      }
    </style>
  </defs>
  <g id="Layer_1-2" data-name="Layer 1">
    <g>
      <path class="cls-1" d="m43.55,10.11h13.12c2.19,0,3.91.68,5.21,1.6,1.03.72,1.86,1.68,2.07,3.26.19,1.51-.11,2.97-.95,3.92-.93,1.05-1.39,1.3-2.41,1.99,1,.36,2.1.74,2.86,1.69.77.95,1.27,2.06,1.27,3.5s-.22,2.71-.77,3.65c-.55.94-1.55,1.72-2.5,2.26-.59.34-1.47.59-2.66.74-1.58.21-2.63.31-3.14.31h-12.1V10.11Zm7.23,9.39h3.03c1.09,0,1.79-.04,2.28-.32.86-.49,1.12-1.16,1.12-1.87,0-.66-.14-1.3-.66-1.71-.44-.36-1.79-.35-2.86-.35h-2.91v4.24Zm0,8.44h3.41c1.74,0,2.58-.31,3.07-.73.5-.43.74-1,.74-1.72,0-.67-.25-1.21-.73-1.61-.49-.41-1.21-.61-3.11-.61h-3.39v4.67Z"/>
      <path class="cls-1" d="m73.19,21.32h-6.11c0-.84.26-1.75.68-2.37.5-.75,1-1.18,1.81-1.63.58-.32,1.49-.66,2.51-.84,1.02-.18,2-.36,3.19-.36,1.91,0,3.46-.04,4.61.17,1.16.21,2.43.72,3.2,1.4.54.47,1.04,1.21,1.27,2.24.23,1.07.21,2.27.21,3.05v5.84c0,.78,0,1.9,0,2.53,0,.25.14.81.89,1.41v.29h-6.67c0-.51.05-1.91-.02-2.39-.83.8-1.68,1.35-2.46,1.79-.99.55-2.54,1.06-4.02,1.06-1.98,0-3.7-.39-4.73-1.31-1.03-.92-1.61-2-1.61-3.35,0-1.26.33-2.64,1.09-3.44,1.02-1.09,2.33-1.5,4.32-1.9,2.38-.48,3.2-.28,3.91-.47.71-.19,1.87-.33,2.62-.98.61-.52.3-1.58-.02-1.89-.32-.31-.91-.57-1.72-.63-1.15-.09-1.7.14-2.22.47-.41.26-.59.57-.72,1.29Zm5.01,3.55c-.5.46-.78.77-1.77,1.05-1.3.37-1.93.38-2.42.55-.52.18-1.2.47-1.36,1.5-.11.75-.02,1.16.33,1.48.35.32,1.15.72,1.82.72s1.24-.03,2.05-.54c.59-.37.95-1.05,1.15-1.57.26-.69.26-1.15.26-1.94l-.07-1.25Z"/>
      <path class="cls-1" d="m99.2,16.55h5.57l-.02,15.07-.14,1.19c-.17,1.01-.13,1.17-.51,2.1-.41,1-.84,1.57-1.54,2.17-.8.69-1.8,1.12-2.92,1.39-1.42.33-2.75.43-4.21.39-2.14-.06-3.62-.29-5.09-.92-1.07-.46-1.87-.92-2.73-2.25-.11-.17-.29-.58-.41-1.33h6.44c.17.3.17.45.5.66.47.3.95.51,1.66.51.92,0,1.57-.15,2.02-.62.45-.47.89-1.25.89-2.41l-.02-2.73c-.62.7-1.3,1.39-1.93,1.7-.98.5-2.03.74-3.17.74-2.22,0-4.27-.78-5.63-2.63-.97-1.31-1.6-3.14-1.6-5.29,0-2.46.83-4.38,1.94-5.79,1.24-1.55,3.18-2.41,5.2-2.41,1.43,0,2.34.32,3.18.73.84.42,1.67,1.19,2.52,2.13v-2.43Zm-6.68,7.9c0,1.14.53,2.15,1.04,2.7.51.55,1.17.91,2,.92,1,.02,1.76-.48,2.29-1.06.54-.57.84-1.58.84-2.73s-.11-2.31-.83-3.01c-.59-.58-.98-.89-2.06-.92-1.74-.05-2.25.63-2.58,1.13-.41.62-.71,1.67-.71,2.97Z"/>
      <path class="cls-1" d="m106.48,24.74c.11-2.92.74-4.07,2.17-5.95,1.74-1.7,4.31-2.67,7.23-2.67,3.34,0,5.82.81,7.53,2.74,1.37,1.56,2.06,3.48,2.06,5.77,0,2.57-.84,4.78-2.54,6.42-1.7,1.64-4.06,2.46-7.06,2.46-2.68,0-4.85-.68-6.51-2.04-2.03-1.69-2.98-4-2.88-6.73Zm6.17-.02c0,1.49.37,2.82.97,3.53.6.71,1.33,1.18,2.24,1.2,1.24.02,1.89-.41,2.49-1.11.59-.7.93-2.11.93-3.66,0-1.45-.31-2.74-.86-3.48-.7-.95-1.57-1.22-2.45-1.22-.93,0-1.96.5-2.53,1.4-.5.8-.79,1.88-.79,3.35Zm3.68-15.12h6.2l-5.43,4.5-3.91-.02,3.14-4.47Z"/>
      <polygon class="cls-1" points="28.17 0 19.94 0 0 33.02 38.85 33.02 25.19 9.77 20.94 16.96 26.27 25.91 12.62 25.91 28.17 0"/>
    </g>
  </g>
</svg>