<?xml version="1.0" encoding="UTF-8"?>
<svg id="Layer_2" data-name="Layer 2" xmlns="http://www.w3.org/2000/svg" viewBox="0 0 358.44 163.21">
  <defs>
    <style>
      .cls-1 {
        fill: #fff;
      }
    </style>
  </defs>
  <g id="Layer_1-2" data-name="Layer 1">
    <g>
      <g>
        <path class="cls-1" d="m0,118.38V38.57h19.27c18.24,0,20.18,12.88,20.18,22.8,0,8.44-3.08,15.62-9.58,16.53v.23c7.75.91,10.15,9.58,10.15,15.85,0,11.74-2.51,24.4-20.75,24.4H0Zm17.1-48.46h1.14c3.76,0,4.67-3.19,4.67-8.55s-.91-7.98-4.67-7.98h-1.14v16.53Zm1.03,13.68h-1.03v21.09h1.03c3.65,0,5.36-1.14,5.36-10.72s-2.51-10.26-5.36-10.38Z"/>
        <path class="cls-1" d="m44.58,38.57h17.1v79.81h-17.1V38.57Z"/>
        <path class="cls-1" d="m67.38,38.57h34.2v17.1h-17.1v14.82h14.82v15.96h-14.82v14.82h17.1v17.1h-34.2V38.57Z"/>
        <path class="cls-1" d="m146.16,118.38h-15.96v-30.1l-8.09-18.58v48.68h-15.96V38.57h15.96l8.09,16.53v-16.53h15.96v79.81Z"/>
        <path class="cls-1" d="m151.86,38.57h34.2v17.1h-17.1v14.82h14.82v15.96h-14.82v14.82h17.1v17.1h-34.2V38.57Z"/>
        <path class="cls-1" d="m209.32,37.42c11.86,0,19.84,5.02,19.84,19.84v4.22l-16.87,1.48v-6.61c0-1.14,0-3.88-2.85-3.88s-2.85,2.74-2.85,3.88c0,18.01,22.57,22.12,22.57,43.33,0,14.82-7.98,19.84-19.95,19.84s-19.72-5.02-19.72-19.84v-4.79l16.87-1.94v7.75c0,1.14,0,3.99,2.85,3.99s2.85-2.85,2.85-3.99c0-14.82-22.58-22.23-22.58-43.44,0-14.82,7.98-19.84,19.84-19.84Z"/>
        <path class="cls-1" d="m231.43,38.57h37.51v17.1h-10.15v62.71h-17.1v-62.71h-10.26v-17.1Z"/>
        <path class="cls-1" d="m305.66,38.57l8.55,79.81h-17.9l-.8-11.06h-8.55l-.8,11.06h-17.1l8.55-79.81h28.05Zm-17.56,53.93h6.38l-2.62-36.83h-1.14l-2.62,36.83Z"/>
        <path class="cls-1" d="m335.75,85.88h-1.03v32.49h-17.1V38.57h19.27c18.24,0,20.75,13.45,20.75,23.37,0,8.44-3.65,17.33-10.15,18.24v.23c7.75.91,9.46,9.69,9.46,15.96,0,11.74-.68,15.28,1.48,22h-18.47v-22.12c0-9.46-1.37-10.26-4.22-10.38Zm-1.03-13.68h1.14c3.76,0,4.67-4.33,4.67-9.69s-.91-9.12-4.67-9.12h-1.14v18.81Z"/>
      </g>
      <g>
        <path class="cls-1" d="m7.21,18.74v10.5H1.03V.41h6.96c6.59,0,7.5,5.48,7.5,9.06,0,3.09-.87,9.27-7.91,9.27h-.37Zm0-4.94h.41c1.36,0,1.69-2.39,1.69-4.33s-.33-3.71-1.69-3.71h-.41v8.03Z"/>
        <path class="cls-1" d="m23.8,17.5h-.37v11.74h-6.18V.41h6.96c6.59,0,7.5,4.86,7.5,8.44,0,3.05-1.32,6.26-3.67,6.59v.08c2.8.33,3.42,3.5,3.42,5.77,0,4.24-.25,5.52.54,7.95h-6.67v-7.99c0-3.42-.49-3.71-1.52-3.75Zm-.37-4.94h.41c1.36,0,1.69-1.56,1.69-3.5s-.33-3.29-1.69-3.29h-.41v6.79Z"/>
        <path class="cls-1" d="m33.2,14.83c0-8.24-.66-14.83,7.17-14.83s7.25,6.59,7.25,14.83.7,14.83-7.12,14.83-7.29-7-7.29-14.83Zm6.18,0c0,6.3-.12,9.06,1.03,9.06s1.03-2.76,1.03-9.06.12-8.98-1.03-8.98-1.03,2.68-1.03,8.98Z"/>
        <path class="cls-1" d="m55.23,6.84v16.02c0,.41,0,1.44,1.03,1.44s1.03-1.03,1.03-1.44v-5.68h-1.19l.41-4.53h6.84v9.84c0,6.18-2.84,7.17-7.17,7.17s-7.12-.99-7.12-7.17V7.17c0-6.18,2.84-7.17,7.12-7.17s7.17.99,7.17,7.17v1.98l-6.05.58v-2.88c0-.41-.04-1.4-1.03-1.4s-1.03.99-1.03,1.4Z"/>
        <path class="cls-1" d="m71.67,17.5h-.37v11.74h-6.18V.41h6.96c6.59,0,7.5,4.86,7.5,8.44,0,3.05-1.32,6.26-3.67,6.59v.08c2.8.33,3.42,3.5,3.42,5.77,0,4.24-.25,5.52.54,7.95h-6.67v-7.99c0-3.42-.49-3.71-1.52-3.75Zm-.37-4.94h.41c1.36,0,1.69-1.56,1.69-3.5s-.33-3.29-1.69-3.29h-.41v6.79Z"/>
        <path class="cls-1" d="m93.83.41l3.09,28.83h-6.47l-.29-4h-3.09l-.29,4h-6.18L83.7.41h10.13Zm-6.34,19.48h2.31l-.95-13.3h-.41l-.95,13.3Z"/>
        <path class="cls-1" d="m118.37.41l-.04,28.83h-6.18v-11.78l-2.59,8.57h-2.47l-2.64-8.57v11.78h-6.18V.41h5.77l4.16,13.26h.25L112.57.41h5.81Z"/>
        <path class="cls-1" d="m132.96.41l3.09,28.83h-6.47l-.29-4h-3.09l-.29,4h-6.18L122.83.41h10.13Zm-6.34,19.48h2.31l-.95-13.3h-.41l-.95,13.3Z"/>
      </g>
      <g>
        <path class="cls-1" d="m275.1,134.45h13.12c2.19,0,3.91.68,5.21,1.6,1.03.72,1.86,1.68,2.07,3.26.19,1.51-.11,2.97-.95,3.92-.93,1.05-1.39,1.3-2.41,1.99,1,.36,2.1.74,2.86,1.69.77.95,1.27,2.06,1.27,3.5s-.22,2.71-.77,3.65c-.55.94-1.55,1.72-2.5,2.26-.59.34-1.47.59-2.66.74-1.58.21-2.63.31-3.14.31h-12.1v-22.91Zm7.23,9.39h3.03c1.09,0,1.79-.04,2.28-.32.86-.49,1.12-1.16,1.12-1.87,0-.66-.14-1.3-.66-1.71-.44-.36-1.79-.35-2.86-.35h-2.91v4.24Zm0,8.44h3.41c1.74,0,2.58-.31,3.07-.73.5-.43.74-1,.74-1.72,0-.67-.25-1.21-.73-1.61-.49-.41-1.21-.61-3.11-.61h-3.39v4.67Z"/>
        <path class="cls-1" d="m304.74,145.66h-6.11c0-.84.26-1.75.68-2.37.5-.75,1-1.18,1.81-1.63.58-.32,1.49-.66,2.51-.84,1.02-.18,2-.36,3.19-.36,1.91,0,3.46-.04,4.61.17,1.16.21,2.43.72,3.2,1.4.54.47,1.04,1.21,1.27,2.24.23,1.07.21,2.27.21,3.05v5.84c0,.78,0,1.9,0,2.53,0,.25.14.81.89,1.41v.29h-6.67c0-.51.05-1.91-.02-2.39-.83.8-1.68,1.35-2.46,1.79-.99.55-2.54,1.06-4.02,1.06-1.98,0-3.7-.39-4.73-1.31-1.03-.92-1.61-2-1.61-3.35,0-1.26.33-2.64,1.09-3.44,1.02-1.09,2.33-1.5,4.32-1.9,2.38-.48,3.2-.28,3.91-.47.71-.19,1.87-.33,2.62-.98.61-.52.3-1.58-.02-1.89-.32-.31-.91-.57-1.72-.63-1.15-.09-1.7.14-2.22.47-.41.26-.59.57-.72,1.29Zm5.01,3.55c-.5.46-.78.77-1.77,1.05-1.3.37-1.93.38-2.42.55-.52.18-1.2.47-1.36,1.5-.11.75-.02,1.16.33,1.48.35.32,1.15.72,1.82.72s1.24-.03,2.05-.54c.59-.37.95-1.05,1.15-1.57.26-.69.26-1.15.26-1.94l-.07-1.25Z"/>
        <path class="cls-1" d="m330.75,140.89h5.57l-.02,15.07-.14,1.19c-.17,1.01-.13,1.17-.51,2.1-.41,1-.84,1.57-1.54,2.17-.8.69-1.8,1.12-2.92,1.39-1.42.33-2.75.43-4.21.39-2.14-.06-3.62-.29-5.09-.92-1.07-.46-1.87-.92-2.73-2.25-.11-.17-.29-.58-.41-1.33h6.44c.17.3.17.45.5.66.47.3.95.51,1.66.51.92,0,1.57-.15,2.02-.62.45-.47.89-1.25.89-2.41l-.02-2.73c-.62.7-1.3,1.39-1.93,1.7-.98.5-2.03.74-3.17.74-2.22,0-4.27-.78-5.63-2.63-.97-1.31-1.6-3.14-1.6-5.29,0-2.46.83-4.38,1.94-5.79,1.24-1.55,3.18-2.41,5.2-2.41,1.43,0,2.34.32,3.18.73.84.42,1.67,1.19,2.52,2.13v-2.43Zm-6.68,7.9c0,1.14.53,2.15,1.04,2.7.51.55,1.17.91,2,.92,1,.02,1.76-.48,2.29-1.06.54-.57.84-1.58.84-2.73s-.11-2.31-.83-3.01c-.59-.58-.98-.89-2.06-.92-1.74-.05-2.25.63-2.58,1.13-.41.62-.71,1.67-.71,2.97Z"/>
        <path class="cls-1" d="m338.03,149.08c.11-2.92.74-4.07,2.17-5.95,1.74-1.7,4.31-2.67,7.23-2.67,3.34,0,5.82.81,7.53,2.74,1.37,1.56,2.06,3.48,2.06,5.77,0,2.57-.84,4.78-2.54,6.42-1.7,1.64-4.06,2.46-7.06,2.46-2.68,0-4.85-.68-6.51-2.04-2.03-1.69-2.98-4-2.88-6.73Zm6.17-.02c0,1.49.37,2.82.97,3.53.6.71,1.33,1.18,2.24,1.2,1.24.02,1.89-.41,2.49-1.11.59-.7.93-2.11.93-3.66,0-1.45-.31-2.74-.86-3.48-.7-.95-1.57-1.22-2.45-1.22-.93,0-1.96.5-2.53,1.4-.5.8-.79,1.88-.79,3.35Zm3.68-15.12h6.2l-5.43,4.5-3.91-.02,3.14-4.47Z"/>
        <polygon class="cls-1" points="259.72 124.34 251.49 124.34 231.55 157.36 270.4 157.36 256.74 134.11 252.49 141.3 257.82 150.25 244.17 150.25 259.72 124.34"/>
      </g>
    </g>
  </g>
</svg>